<svg width="328" height="160" viewBox="0 0 328 160" fill="none" xmlns="http://www.w3.org/2000/svg">
<rect width="327.5" height="160" transform="translate(0.5)" fill="#F1F1FD"/>
<path d="M265.02 99.5404H235.409C234.164 99.5404 233.154 100.55 233.154 101.796V126.745C233.154 127.99 234.164 129 235.409 129H265.02C266.266 129 267.276 127.99 267.276 126.745V101.796C267.276 100.55 266.266 99.5404 265.02 99.5404Z" fill="white" stroke="#242020" stroke-miterlimit="10"/>
<path d="M235.409 129H265.02C266.266 129 267.276 127.99 267.276 126.745V125.744L249.242 111.894C247.799 110.786 245.78 110.836 244.393 112.013L233.154 121.555V126.745C233.154 127.99 234.164 129 235.409 129Z" fill="#242020"/>
<path d="M259.144 113.412C261.877 113.412 264.093 111.196 264.093 108.463C264.093 105.729 261.877 103.513 259.144 103.513C256.41 103.513 254.195 105.729 254.195 108.463C254.195 111.196 256.41 113.412 259.144 113.412Z" fill="#242020"/>
<path d="M71.9063 142.693C84.2809 142.693 94.3125 132.661 94.3125 120.286C94.3125 107.912 84.2809 97.8801 71.9063 97.8801C59.5316 97.8801 49.5 107.912 49.5 120.286C49.5 132.661 59.5316 142.693 71.9063 142.693Z" fill="white" stroke="#242020" stroke-miterlimit="10"/>
<path d="M82.4311 109.57H66.0229C65.825 109.57 65.6646 109.731 65.6646 109.929V126.337C65.6646 126.535 65.825 126.695 66.0229 126.695H82.4311C82.629 126.695 82.7894 126.535 82.7894 126.337V109.929C82.7894 109.731 82.629 109.57 82.4311 109.57Z" fill="#E2E2FD" stroke="#242020" stroke-miterlimit="10"/>
<path d="M250.215 56.6705C260.893 56.6705 269.55 48.0138 269.55 37.3353C269.55 26.6567 260.893 18 250.215 18C239.536 18 230.879 26.6567 230.879 37.3353C230.879 48.0138 239.536 56.6705 250.215 56.6705Z" fill="white" stroke="#242020" stroke-miterlimit="10"/>
<path d="M250.695 22.5271V36.3038C251.422 36.5136 251.955 37.1754 251.955 37.9688C251.955 38.9303 251.176 39.7096 250.215 39.7096C249.253 39.7096 248.474 38.9303 248.474 37.9688C248.474 37.1753 249.008 36.5133 249.734 36.3037V22.5271C246.432 31.5518 241.106 36.6492 241.106 36.6492L246.128 45.8375H254.301L259.323 36.6492C259.323 36.6492 253.997 31.5519 250.695 22.5271Z" fill="#242020"/>
<path d="M254.416 47.6581H246.014V49.4186H254.416V47.6581Z" fill="#242020"/>
<path d="M77.7896 113.877H61.3814C61.1836 113.877 61.0231 114.038 61.0231 114.236V130.644C61.0231 130.842 61.1836 131.002 61.3814 131.002H77.7896C77.9875 131.002 78.1479 130.842 78.1479 130.644V114.236C78.1479 114.038 77.9875 113.877 77.7896 113.877Z" stroke="#242020" stroke-miterlimit="10"/>
<path d="M82.3822 109.794L78.1481 113.877" stroke="#242020" stroke-miterlimit="10"/>
<path d="M65.7471 109.704L61.2943 113.877" stroke="#242020" stroke-miterlimit="10"/>
<path d="M82.6913 126.581L77.9745 130.944" stroke="#242020" stroke-miterlimit="10"/>
<path d="M65.6915 126.473L61.1193 130.884" stroke="#242020" stroke-miterlimit="10"/>
<path d="M71.4371 124.639C73.6248 124.639 75.3982 122.865 75.3982 120.678C75.3982 118.49 73.6248 116.717 71.4371 116.717C69.2495 116.717 67.476 118.49 67.476 120.678C67.476 122.865 69.2495 124.639 71.4371 124.639Z" fill="#242020"/>
<path d="M212.257 28.9648H115.877C112.793 28.9648 110.292 31.4655 110.292 34.5502V128.769C110.292 131.854 112.793 134.354 115.877 134.354H212.257C215.341 134.354 217.842 131.854 217.842 128.769V34.5502C217.842 31.4655 215.341 28.9648 212.257 28.9648Z" fill="white" stroke="#242020" stroke-miterlimit="10"/>
<path d="M188.874 80.3355C188.874 65.6952 176.191 54.017 161.213 55.6884C149.563 56.9884 140.346 66.4862 139.352 78.1664C138.752 85.2288 141.116 91.7332 145.335 96.5846C149.941 101.882 152.54 108.628 152.54 115.648V119.988C152.54 120.862 153.249 121.571 154.123 121.571H174.01C174.885 121.571 175.593 120.862 175.593 119.988V115.649C175.593 108.604 178.238 101.86 182.846 96.5303C186.601 92.1871 188.874 86.5289 188.874 80.3355Z" fill="#E2E2FD" stroke="#242020" stroke-miterlimit="10"/>
<path d="M148.699 84.3056H154.688V74.234C154.688 72.3999 156.175 70.9131 158.009 70.9131C159.843 70.9131 161.33 72.3999 161.33 74.234V92.0907C161.33 93.9248 162.817 95.4116 164.651 95.4116H166.039C167.873 95.4116 169.36 93.9248 169.36 92.0907V80.1136C169.36 78.2796 170.847 76.7927 172.681 76.7927H173.198C175.032 76.7927 176.519 78.2796 176.519 80.1136V84.0062H181.364" stroke="#242020" stroke-miterlimit="10"/>
<path d="M152.241 111.597C152.437 112.93 152.541 114.282 152.541 115.648L152.541 119.988C152.541 120.862 153.249 121.571 154.124 121.571H174.011C174.885 121.571 175.594 120.862 175.594 119.988V115.65C175.594 114.29 175.689 112.935 175.871 111.597H152.241Z" fill="#242020"/>
<path d="M158.821 123.571H169.313V125.787C169.313 127.137 168.218 128.233 166.868 128.233H161.266C159.916 128.233 158.821 127.137 158.821 125.787V123.571Z" fill="#E2E2FD" stroke="#242020" stroke-miterlimit="10"/>
<path d="M139.564 108.767H120.23C119.338 108.767 118.614 109.491 118.614 110.383V124.756C118.614 125.648 119.338 126.372 120.23 126.372H139.564C140.457 126.372 141.18 125.648 141.18 124.756V110.383C141.18 109.491 140.457 108.767 139.564 108.767Z" fill="#E2E2FD" stroke="#242020" stroke-miterlimit="10"/>
<path d="M198.156 108.767H208.879" stroke="#242020" stroke-miterlimit="10"/>
<path d="M191.515 114.723H208.879" stroke="#242020" stroke-miterlimit="10"/>
<path d="M191.515 120.679H208.879" stroke="#242020" stroke-miterlimit="10"/>
<path d="M127.257 81.1594H134.299" stroke="#242020" stroke-miterlimit="10"/>
<path d="M193.835 81.1594H200.877" stroke="#242020" stroke-miterlimit="10"/>
<path d="M165.032 45.3093V50.5908" stroke="#242020" stroke-miterlimit="10"/>
<path d="M134.631 54.2714L138.608 57.8757" stroke="#242020" stroke-miterlimit="10"/>
<path d="M193.503 54.2714L189.526 57.8757" stroke="#242020" stroke-miterlimit="10"/>
<path d="M212.257 28.9648H115.877C112.792 28.9648 110.292 31.4655 110.292 34.5502V40.4881H217.842V34.5502C217.842 31.4655 215.341 28.9648 212.257 28.9648ZM118.614 37.8474C117.2 37.8474 116.054 36.7009 116.054 35.2866C116.054 33.8724 117.2 32.7259 118.614 32.7259C120.028 32.7259 121.175 33.8724 121.175 35.2866C121.175 36.7009 120.028 37.8474 118.614 37.8474ZM127.99 37.8474C126.575 37.8474 125.429 36.7009 125.429 35.2866C125.429 33.8724 126.575 32.7259 127.99 32.7259C129.404 32.7259 130.55 33.8724 130.55 35.2866C130.55 36.7009 129.404 37.8474 127.99 37.8474ZM137.365 37.8474C135.951 37.8474 134.804 36.7009 134.804 35.2866C134.804 33.8724 135.951 32.7259 137.365 32.7259C138.779 32.7259 139.926 33.8724 139.926 35.2866C139.926 36.7009 138.779 37.8474 137.365 37.8474Z" fill="#242020"/>
<path d="M118.614 113.068H141.18" stroke="#242020" stroke-miterlimit="10"/>
<path d="M64.2796 70.7393C65.4834 70.7393 66.4592 69.7635 66.4592 68.5597C66.4592 67.3559 65.4834 66.3801 64.2796 66.3801C63.0758 66.3801 62.1 67.3559 62.1 68.5597C62.1 69.7635 63.0758 70.7393 64.2796 70.7393Z" stroke="#242020" stroke-miterlimit="10"/>
<path d="M250.215 81.2292C250.215 78.333 249.166 77.2843 246.27 77.2843C249.166 77.2843 250.215 76.2356 250.215 73.3394C250.215 76.2356 251.263 77.2843 254.16 77.2843C251.263 77.2843 250.215 78.333 250.215 81.2292Z" fill="#242020"/>
<path d="M73.2449 32.87C73.2449 29.9737 72.1963 28.925 69.3 28.925C72.1963 28.925 73.2449 27.8764 73.2449 24.9801C73.2449 27.8764 74.2936 28.925 77.1899 28.925C74.2936 28.925 73.2449 29.9737 73.2449 32.87Z" fill="#242020"/>
<path d="M89.4449 85.97C89.4449 83.0737 88.3963 82.025 85.5 82.025C88.3963 82.025 89.4449 80.9764 89.4449 78.0801C89.4449 80.9764 90.4936 82.025 93.3899 82.025C90.4936 82.025 89.4449 83.0737 89.4449 85.97Z" fill="#242020"/>
<path d="M282.98 66.2392C284.183 66.2392 285.159 65.2634 285.159 64.0596C285.159 62.8559 284.183 61.88 282.98 61.88C281.776 61.88 280.8 62.8559 280.8 64.0596C280.8 65.2634 281.776 66.2392 282.98 66.2392Z" stroke="#242020" stroke-miterlimit="10"/>
</svg>
